<?xml version="1.0" encoding="iso-8859-1"?>
<!-- Generator: Adobe Illustrator 18.0.0, SVG Export Plug-In . SVG Version: 6.00 Build 0)  -->
<!DOCTYPE svg PUBLIC "-//W3C//DTD SVG 1.1//EN" "http://www.w3.org/Graphics/SVG/1.1/DTD/svg11.dtd">
<svg xmlns="http://www.w3.org/2000/svg" xmlns:xlink="http://www.w3.org/1999/xlink" version="1.1" id="Capa_1" x="0px" y="0px" viewBox="0 0 344.627 344.627" style="enable-background:new 0 0 344.627 344.627;" xml:space="preserve" width="512px" height="512px">
<g>
	<path d="M317.978,164.682c0.009,0.009-0.128-0.125-0.166-0.158c-0.63-0.619-4.415-4.609-8.344-14.554   c-5.315-13.452-8.503-31.268-9.474-52.954c-2.553-57.146-15.202-77.313-50.129-79.92c-13.042-0.973-25.189,4.665-33.877,10.333   c1.646-8.627,3.634-12.139,3.756-12.347c1.164-1.824,0.665-4.254-1.14-5.469c-0.318-0.214-11.848-8.791-11.848-8.791   c-0.843-0.645-1.907-0.925-2.958-0.789c-1.052,0.14-2.005,0.692-2.65,1.534c-1.614,2.11-6.895,10.366-9.305,30.364   c-45.585,14.884-65.86,43.995-74.852,65.995c-2.884,7.056-4.83,13.846-6.138,20.039c-2.484-0.237-4.997-0.367-7.514-0.367   c-43.01,0-78,34.991-78,78s34.99,78,78,78c12.159,0,24.079-2.829,34.847-8.208c1.804,20.51,10.711,39.548,25.519,54.164   c16.383,16.169,38.083,25.074,61.104,25.074c47.972,0,87-39.028,87-87c0-22.613-8.633-44.035-24.309-60.321   c-14.93-15.511-34.748-24.803-56.08-26.401c-14.762-59.132-17.866-96.656-17.619-118.544c0.019-1.662,0.057-3.256,0.111-4.788   c8.643,3.445,19.44,10.72,21.264,25.775c2.173,17.893,14.285,77.846,78.914,98.104c0.396,0.124,0.799,0.184,1.196,0.184   c1.471,0,2.865-0.814,3.563-2.183C319.677,167.834,319.298,165.884,317.978,164.682z M249.271,25.074   c15.493,1.157,24.79,5.944,31.087,16.009c6.8,10.87,10.391,28.23,11.645,56.291c0.969,21.647,4.021,37.281,7.495,48.407   c-15.48-20.333-18.496-40.947-21.219-59.653c-2.176-14.952-4.231-29.075-12.732-39.999c-11.036-14.182-29.449-15.08-43.247-13.232   C229.684,28.39,239.298,24.335,249.271,25.074z M33.34,195.597c0-38.598,31.402-70,70-70c2.051,0,4.097,0.099,6.122,0.273   c-0.627,4.43-0.938,8.398-1.065,11.715c-0.052,1.36,0.143,2.684,0.542,3.939c-3.827-0.657-8.18-2.112-12.199-5.127   c-1.767-1.325-4.274-0.967-5.601,0.8c-1.325,1.767-0.967,4.274,0.8,5.6c7.99,5.992,16.77,7.228,22.652,7.228   c3.632,0,6.133-0.466,6.69-0.579c5.569-0.677,9.89-5.327,10.114-10.984c0.078-1.999,0.239-4.284,0.522-6.787   c22.539,10.086,38.252,31.498,40.98,56.131c-21.72,16.18-34.729,41.633-35.072,68.722c-10.473,5.938-22.346,9.068-34.486,9.068   C64.742,265.597,33.34,234.196,33.34,195.597z M180.287,182.882c-4.351-26.442-22.176-49.03-47.085-59.357   c1.08-5.365,2.747-11.299,5.311-17.455c9.416-22.606,26.929-39.154,52.104-49.255c0.267,30.824,6.112,69.528,17.415,115.446   C198.282,174.17,188.853,177.783,180.287,182.882z M303.81,257.627c0,43.561-35.439,79-79,79c-20.903,0-40.607-8.086-55.483-22.768   c-14.862-14.668-23.206-34.236-23.496-55.098c-0.001-0.052-0.021-0.805-0.021-1.134c0-25.682,12.558-49.854,33.591-64.658   c9.142-6.427,19.649-10.858,30.579-12.936c2.208,8.657,7.297,27.066,7.358,27.246c-7.23-0.659-16.276-3.113-23.071-10.408   c-1.503-1.617-4.034-1.707-5.653-0.201c-1.616,1.506-1.706,4.037-0.2,5.653c10.33,11.093,24.249,13.206,33.353,13.206   c2.981,0,10.338-1.084,10.666-1.212c5.428-2.131,8.476-8.115,6.861-13.839c-2.087-7.398-4.008-14.506-5.781-21.347   C273.345,183.448,303.81,216.923,303.81,257.627z M231.593,202.649c0.513,1.819-0.517,3.714-2.296,4.286   c-0.229,0.084-0.542,0.162-1.155,0.17c-1.524-0.038-2.867-1.07-3.283-2.544c-17.978-63.693-26.801-115.327-26.225-153.467   c0.02-1.308-0.602-2.542-1.662-3.306c-0.69-0.497-1.51-0.754-2.338-0.754c-0.445,0-0.894,0.074-1.324,0.226   c-30.283,10.626-51.204,29.378-62.182,55.733c-5.792,13.907-7.398,26.793-7.727,35.154c-0.069,1.772-1.444,3.226-3.197,3.379   c-1.081,0.095-2.093-0.291-2.833-1.062c-0.669-0.694-1.017-1.609-0.979-2.577c0.332-8.726,1.99-22.217,8.007-36.937   c8.501-20.802,27.947-48.474,72.313-62.174c1.533-0.473,2.635-1.817,2.799-3.414c1.386-13.52,4.105-21.375,5.997-25.423   l5.756,4.407C206.298,26.756,195.198,73.639,231.593,202.649z M243.119,72.384c-2.12-17.498-13.957-26.517-23.428-30.99   c12.121-2.205,29.896-2.75,39.541,9.648c7.203,9.256,9.023,21.76,11.131,36.238c2.962,20.351,6.542,44.814,27.004,68.534   C253.921,132.451,244.909,87.123,243.119,72.384z" fill="#D80027"/>
	<path d="M149.435,167.372c3.428,5.516,5.51,11.857,6.02,18.338c0.164,2.096,1.916,3.687,3.983,3.687   c0.104,0,0.211-0.004,0.317-0.012c2.202-0.173,3.848-2.099,3.674-4.301c-0.609-7.751-3.099-15.335-7.199-21.934   c-1.167-1.876-3.632-2.452-5.509-1.286C148.845,163.03,148.269,165.496,149.435,167.372z" fill="#D80027"/>
	<path d="M138.808,155.898c1.583,1.161,3.097,2.448,4.499,3.825c0.778,0.765,1.79,1.146,2.802,1.146c1.036,0,2.071-0.4,2.854-1.198   c1.548-1.577,1.524-4.109-0.053-5.657c-1.674-1.643-3.48-3.179-5.37-4.566c-1.78-1.307-4.285-0.922-5.591,0.859   C136.642,152.088,137.026,154.591,138.808,155.898z" fill="#D80027"/>
	<path d="M286.087,257.636c0,2.209,1.791,4,4,4s4-1.791,4-4c0-16.811-6.097-33.022-17.166-45.647   c-1.457-1.661-3.984-1.828-5.645-0.371c-1.661,1.457-1.827,3.984-0.371,5.645C280.695,228.428,286.087,242.766,286.087,257.636z" fill="#D80027"/>
	<path d="M250.301,201.9c3.925,1.797,7.674,4.022,11.144,6.614c0.719,0.537,1.558,0.795,2.391,0.795   c1.219,0,2.422-0.555,3.208-1.606c1.321-1.77,0.958-4.276-0.812-5.598c-3.922-2.93-8.161-5.446-12.599-7.478   c-2.011-0.921-4.383-0.037-5.303,1.971C247.41,198.606,248.293,200.98,250.301,201.9z" fill="#D80027"/>
</g>
<g>
</g>
<g>
</g>
<g>
</g>
<g>
</g>
<g>
</g>
<g>
</g>
<g>
</g>
<g>
</g>
<g>
</g>
<g>
</g>
<g>
</g>
<g>
</g>
<g>
</g>
<g>
</g>
<g>
</g>
</svg>
